<?xml version="1.0" encoding="UTF-8"?>
<svg xmlns="http://www.w3.org/2000/svg" xmlns:xlink="http://www.w3.org/1999/xlink" viewBox="0 0 128 128" width="128px" height="128px">
<g id="surface136391830">
<path style=" stroke:none;fill-rule:nonzero;fill:rgb(100%,100%,100%);fill-opacity:1;" d="M 64 12 C 35.285156 12 12 35.285156 12 64 C 12 90.070312 31.207031 111.597656 56.226562 115.359375 L 56.226562 77.78125 L 43.359375 77.78125 L 43.359375 64.113281 L 56.226562 64.113281 L 56.226562 55.015625 C 56.226562 39.957031 63.5625 33.351562 76.078125 33.351562 C 82.070312 33.351562 85.242188 33.796875 86.742188 33.996094 L 86.742188 45.925781 L 78.207031 45.925781 C 72.894531 45.925781 71.039062 50.964844 71.039062 56.640625 L 71.039062 64.113281 L 86.609375 64.113281 L 84.496094 77.78125 L 71.039062 77.78125 L 71.039062 115.464844 C 96.417969 112.027344 116 90.324219 116 64 C 116 35.285156 92.71875 12 64 12 Z M 64 12 "/>
</g>
</svg>
